<svg width="270" height="60" viewBox="0 0 270 60" fill="none" xmlns="http://www.w3.org/2000/svg">
<path d="M1.61495 41.4019C1.66874 41.8329 1.76263 42.4258 1.8971 43.1808C2.032 43.9354 2.26082 44.7978 2.58355 45.7683C2.90671 46.7388 3.33701 47.7627 3.87533 48.841C4.41365 49.9192 5.11331 50.9436 5.97479 51.9137C6.40553 52.3989 6.93022 52.9111 7.54922 53.4502C8.16822 53.9893 8.90845 54.4745 9.76949 54.9059C10.631 55.3369 11.6265 55.7007 12.7569 55.9974C13.8874 56.2937 15.2064 56.4421 16.7134 56.4421C17.1441 56.4421 17.8707 56.4019 18.8936 56.3207C19.9164 56.2399 20.9657 55.9837 22.0423 55.5528C24.3032 54.5823 26.012 53.0864 27.1693 51.065C28.3266 49.0432 28.9055 46.8465 28.9055 44.4746C28.9055 44.0971 28.8786 43.5178 28.8248 42.7358C28.771 41.9543 28.5286 41.1052 28.0978 40.189C27.5057 38.841 26.6852 37.7358 25.6355 36.8735C24.5858 36.0111 23.4421 35.2561 22.2037 34.6093C20.4274 33.6931 18.6378 32.7901 16.8346 31.9004C15.0314 31.0111 13.2414 30.1082 11.4651 29.1915C10.1195 28.5447 8.78719 27.817 7.46851 27.0081C6.14983 26.1997 4.95196 25.2022 3.87533 24.0162C2.74491 22.7764 1.96456 21.469 1.53382 20.0945C1.10351 18.72 0.887893 17.1702 0.887893 15.4451C0.887893 13.5041 1.10351 11.8871 1.53382 10.593C1.96456 9.29929 2.36837 8.32922 2.74489 7.68236C3.66015 5.95726 4.79055 4.59598 6.13613 3.59854C7.4817 2.60111 8.82772 1.8602 10.1733 1.37495C11.5189 0.889703 12.7706 0.593441 13.9279 0.485275C15.0852 0.377537 15.9599 0.323656 16.552 0.323656C18.5972 0.323656 20.2929 0.579736 21.6384 1.09192C22.9845 1.60411 24.0073 2.0757 24.707 2.50708C25.0297 2.77643 25.3529 3.03251 25.6756 3.27535C25.9988 3.51776 26.4564 3.93544 27.0485 4.52843L29.4707 0H30.9238V15.1214L29.2283 15.0406C29.1207 14.5015 28.8786 13.558 28.5016 12.2104C28.1247 10.8628 27.4788 9.47457 26.564 8.04618C25.6487 6.61736 24.4107 5.36426 22.85 4.28602C21.2889 3.20778 19.27 2.66866 16.794 2.66866C16.4175 2.66866 15.8118 2.70931 14.9776 2.79011C14.143 2.87092 13.2683 3.127 12.3535 3.55838C10.3078 4.42071 8.67961 5.78197 7.46851 7.64174C6.25741 9.5015 5.65162 11.5096 5.65162 13.6661C5.65162 14.9598 5.84031 16.0919 6.21684 17.062C6.86273 18.7332 8.03368 20.1351 9.72931 21.2672C11.4249 22.3989 13.7797 23.72 16.794 25.2292C17.6555 25.6605 18.4897 26.065 19.2974 26.4421C20.1046 26.8196 20.9388 27.224 21.8003 27.655C21.9617 27.7632 22.2442 27.9111 22.6481 28.1001C23.0515 28.2886 23.536 28.531 24.1012 28.8277C24.6664 29.124 25.2586 29.4476 25.8776 29.7978C26.4966 30.1484 27.1023 30.5122 27.6944 30.8897C29.1475 31.9141 30.2916 32.9786 31.1258 34.0838C31.9599 35.189 32.5794 36.2668 32.9828 37.3181C33.3866 38.3694 33.6424 39.3668 33.75 40.31C33.8575 41.2535 33.9113 42.0757 33.9113 42.7764C33.9113 44.8247 33.6287 46.7251 33.0635 48.4771C32.4983 50.2291 31.5159 51.8867 30.1166 53.4502C28.4478 55.3369 26.4833 56.7118 24.2224 57.5742C21.9616 58.4369 19.5932 58.8679 17.1172 58.8679C16.6864 58.8679 16.108 58.841 15.381 58.7871C14.6544 58.7332 13.8335 58.6118 12.9187 58.4233C12.0034 58.2347 11.0212 57.9517 9.97144 57.5742C8.9217 57.1967 7.88561 56.6849 6.86277 56.0376C6.00172 55.4989 5.16753 54.8786 4.35984 54.1779L1.3724 59.1915H0V41.4019H1.61495ZM57.0033 51.186C57.0033 52.6417 57.1109 53.6657 57.3265 54.2587C57.5417 54.7978 57.9319 55.2159 58.4971 55.5122C59.0623 55.8089 59.6813 56.0376 60.3541 56.1997C61.0273 56.3613 61.6864 56.469 62.3323 56.5229C62.9782 56.5767 63.5434 56.6306 64.028 56.6849L63.9472 58.3826C62.3323 58.221 60.7041 58.0727 59.0623 57.938C57.4341 57.8033 55.779 57.7358 54.1371 57.7358C52.5491 57.7358 50.921 57.8033 49.2928 57.938C47.651 58.0727 46.0228 58.221 44.4078 58.3826V56.6849C45.861 56.5767 46.9781 56.4558 47.7585 56.3207C48.5388 56.186 49.2253 55.9299 49.8174 55.5528C49.9788 55.4446 50.1807 55.3099 50.4231 55.1483C50.6652 54.9867 50.8672 54.717 51.0286 54.3399C51.1899 54.0701 51.2842 53.6524 51.3111 53.0864C51.338 52.5203 51.3516 51.8598 51.3516 51.1052V8.24796C51.3516 7.70927 51.3516 7.17018 51.3516 6.63106C51.3516 6.09194 51.2441 5.6067 51.0286 5.17532C50.8134 4.6362 50.4364 4.20522 49.8981 3.88157C49.3598 3.55836 48.7544 3.31554 48.0816 3.15393C47.4089 2.99233 46.7493 2.88415 46.1034 2.83028C45.4575 2.77641 44.8924 2.72253 44.4078 2.66866V1.05134H65.9661C66.612 1.05134 67.2442 1.05134 67.8632 1.05134C68.4822 1.05134 69.1148 1.10517 69.7607 1.21333C72.3443 1.42881 74.6589 2.06201 76.7046 3.11331C78.7498 4.16461 80.4724 5.82217 81.8718 8.08639C82.3025 8.78711 82.8007 9.86536 83.3659 11.3211C83.9307 12.7764 84.2133 14.5823 84.2133 16.7388C84.2133 17.224 84.1732 17.8709 84.0925 18.6794C84.0118 19.4882 83.8367 20.3775 83.5674 21.348C83.2984 22.3181 82.8545 23.3292 82.2355 24.3801C81.6028 25.4314 80.7819 26.4421 79.7591 27.4126C78.5211 28.5447 77.2967 29.3801 76.1125 29.9192C74.9283 30.4583 74.0399 30.8089 73.4478 30.9705C72.5731 31.2399 71.6715 31.4151 70.7298 31.4959C69.7876 31.5768 68.4284 31.6712 66.6389 31.779H57.0033V51.186ZM65.1451 29.3531C65.4141 29.3531 65.858 29.3531 66.477 29.3531C67.1097 29.3531 67.823 29.2993 68.6303 29.1915C69.4512 29.0838 70.299 28.8679 71.2006 28.5447C72.0886 28.221 72.9501 27.7632 73.7573 27.1702C74.3093 26.779 74.8609 26.2805 75.4261 25.6605C76.0049 25.0406 76.5159 24.2724 76.9736 23.3562C77.4312 22.4258 77.8213 21.375 78.1176 20.189C78.4134 19.003 78.5616 17.6417 78.5616 16.1321C78.5616 13.6392 78.2252 11.6174 77.5388 10.0543C76.866 8.47712 76.1795 7.3181 75.4666 6.56351C74.2286 5.20224 72.6807 4.28604 70.8374 3.80079C70.2316 3.63918 69.5588 3.51777 68.8054 3.43696C68.0382 3.35616 67.0422 3.31555 65.791 3.31555H57.0033V29.3531H65.1451ZM105.368 51.186C105.421 51.6712 105.448 52.1834 105.448 52.7225C105.448 53.2617 105.556 53.7738 105.772 54.2587C105.987 54.7978 106.364 55.2159 106.902 55.5122C107.44 55.8089 108.046 56.0376 108.718 56.1997C109.392 56.3613 110.051 56.469 110.697 56.5229C111.342 56.5767 111.908 56.6306 112.392 56.6849V58.3826C110.724 58.221 109.082 58.0727 107.467 57.938C105.852 57.8033 104.21 57.7358 102.542 57.7358C100.873 57.7358 99.2314 57.8033 97.6165 57.938C96.0015 58.0727 94.3602 58.221 92.6914 58.3826V56.6849C92.6914 56.6849 92.8933 56.6712 93.2967 56.6443C93.7006 56.6173 94.1582 56.5767 94.6696 56.5229C95.1811 56.469 95.7326 56.3749 96.3247 56.2398C96.9168 56.1052 97.4283 55.9299 97.859 55.7144C98.5049 55.3369 98.989 54.9059 99.3121 54.4207C99.5273 54.0432 99.6485 53.5041 99.6754 52.8033C99.7023 52.1026 99.716 51.5366 99.716 51.1052V8.24796C99.6622 7.49337 99.6217 6.84653 99.5948 6.30741C99.5679 5.76829 99.4735 5.36426 99.3121 5.09449C99.0432 4.55537 98.6394 4.13769 98.1011 3.84141C97.5628 3.5447 96.9706 3.31554 96.3247 3.15393C95.6788 2.99233 95.0193 2.88415 94.3465 2.83028C93.6737 2.77641 93.1222 2.72253 92.6914 2.66866V1.05134H114.734C115.326 1.05134 115.878 1.06499 116.389 1.09192C116.9 1.11886 117.425 1.15904 117.964 1.21333C118.61 1.2672 119.417 1.36127 120.386 1.49637C121.354 1.63104 122.404 1.941 123.535 2.42625C124.665 2.91107 125.795 3.5853 126.926 4.44764C128.056 5.30997 129.079 6.49636 129.994 8.00556C130.371 8.59854 130.842 9.5823 131.407 10.9572C131.972 12.3318 132.255 13.9624 132.255 15.8491C132.255 18.7063 131.515 21.2535 130.035 23.4908C128.554 25.7281 126.576 27.4395 124.1 28.6255C123.131 29.0569 122.175 29.3938 121.234 29.6362C120.291 29.879 119.282 30.0808 118.206 30.2428C118.475 30.3506 118.865 30.4852 119.377 30.6469C119.888 30.8089 120.467 31.1052 121.112 31.5366C121.543 31.8059 121.92 32.1026 122.243 32.4258C122.566 32.7495 122.876 33.127 123.171 33.5579C123.468 33.9893 123.763 34.5015 124.06 35.0945C124.356 35.6875 124.719 36.4152 125.15 37.2779L131.528 52.1565C131.797 52.7495 132.026 53.2347 132.214 53.6118C132.403 53.9893 132.605 54.313 132.82 54.5823C133.52 55.6067 134.368 56.1996 135.363 56.3613C136.359 56.5229 137.396 56.6306 138.472 56.6849L138.391 58.3826C136.777 58.221 135.108 58.1402 133.385 58.1402C131.663 58.1402 129.967 58.221 128.298 58.3826L119.255 37.1971C118.61 35.7952 118.017 34.6499 117.479 33.7602C116.941 32.8709 116.308 32.1834 115.582 31.6981C114.855 31.2129 113.98 30.876 112.957 30.6875C111.935 30.4989 110.643 30.4044 109.082 30.4044H105.368V51.186ZM113.63 28.0594C115.043 27.9517 116.093 27.8709 116.793 27.817C117.492 27.7632 118.233 27.6011 118.986 27.3318C121.691 26.469 123.629 24.906 124.813 22.6687C126.011 20.4182 126.603 17.9786 126.603 15.3236C126.603 14.8384 126.549 14.0838 126.441 13.0462C126.334 12.0218 126.051 10.9303 125.594 9.7713C125.136 8.59858 124.423 7.4934 123.481 6.4421C122.539 5.37754 121.193 4.58231 119.471 4.04319C118.932 3.88159 118.367 3.7469 117.775 3.63917C117.17 3.531 116.604 3.45021 116.066 3.39634C115.528 3.34247 115.07 3.31555 114.694 3.31555C114.317 3.31555 114.061 3.31555 113.953 3.31555H105.368V28.0594H113.63ZM164.147 58.3826C162.479 58.221 160.837 58.0727 159.222 57.938C157.607 57.8033 155.965 57.7358 154.297 57.7358C152.628 57.7358 150.987 57.8033 149.372 57.938C147.757 58.0727 146.115 58.221 144.447 58.3826V56.6849C144.931 56.6306 145.483 56.5767 146.102 56.5229C146.721 56.469 147.34 56.3749 147.959 56.2398C148.578 56.1052 149.157 55.9166 149.695 55.6738C150.233 55.4314 150.663 55.0676 150.987 54.5823C151.256 54.1509 151.404 53.5849 151.431 52.8841C151.458 52.1834 151.471 51.5904 151.471 51.1052V8.00556C151.471 6.44207 151.337 5.41812 151.067 4.93287C150.798 4.39375 150.395 3.96238 149.856 3.63917C149.318 3.31552 148.726 3.07314 148.08 2.91111C147.434 2.7495 146.788 2.64174 146.142 2.58787C145.496 2.534 144.931 2.48012 144.447 2.42625V0.808889C146.115 0.970497 147.757 1.11887 149.372 1.25354C150.987 1.38821 152.628 1.45578 154.297 1.45578C155.965 1.45578 157.607 1.38821 159.222 1.25354C160.837 1.11887 162.479 0.970497 164.147 0.808889V2.42625C163.663 2.48012 163.111 2.534 162.492 2.58787C161.873 2.64174 161.254 2.73623 160.635 2.8709C160.016 3.00557 159.437 3.20778 158.899 3.47713C158.361 3.7469 157.957 4.12401 157.688 4.60926C157.419 5.04064 157.258 5.60668 157.204 6.30741C157.15 7.00813 157.123 7.57417 157.123 8.00556V51.186C157.123 52.7495 157.258 53.8008 157.527 54.3399C157.796 54.8786 158.213 55.2967 158.778 55.593C159.344 55.8897 159.949 56.1052 160.595 56.2398C161.241 56.3749 161.887 56.469 162.533 56.5229C163.179 56.5767 163.717 56.6306 164.147 56.6849V58.3826ZM216.872 60L183.203 7.1163V51.186C183.257 52.0487 183.297 52.7494 183.324 53.2886C183.351 53.8277 183.472 54.2587 183.687 54.5823C183.795 54.7978 183.957 55 184.172 55.1885C184.387 55.3775 184.603 55.5259 184.818 55.6336C185.302 55.903 185.841 56.1052 186.433 56.2398C187.025 56.3749 187.59 56.469 188.128 56.5229C188.667 56.5767 189.137 56.6173 189.541 56.6443C189.945 56.6712 190.173 56.6849 190.227 56.6849V58.3826C188.774 58.2749 187.334 58.1672 185.908 58.0594C184.481 57.9517 183.041 57.8978 181.588 57.8978C180.242 57.8978 178.897 57.9517 177.551 58.0594C176.205 58.1672 174.859 58.2749 173.514 58.3826V56.6849C173.945 56.6849 174.483 56.6443 175.129 56.5635C175.775 56.4827 176.407 56.3749 177.026 56.2398C177.645 56.1052 178.237 55.903 178.802 55.6336C179.368 55.3638 179.785 55.0137 180.054 54.5823C180.269 54.2587 180.39 53.814 180.417 53.248C180.444 52.6819 180.485 51.9679 180.538 51.1052L180.458 4.69005C180.242 4.4207 180.041 4.21849 179.852 4.08382C179.664 3.94914 179.516 3.82773 179.408 3.72C178.655 3.12701 177.699 2.79009 176.542 2.70928C175.385 2.62805 174.348 2.53399 173.433 2.42625V0.808889C175.694 0.970497 177.928 1.05134 180.135 1.05134C181.965 1.05134 183.822 0.970497 185.706 0.808889L215.096 46.4959V8.00556C215.096 7.14322 215.096 6.48269 215.096 6.02437C215.096 5.56606 214.988 5.12143 214.773 4.69005C214.504 4.20522 214.086 3.82772 213.521 3.55838C212.956 3.2886 212.337 3.07314 211.664 2.91111C210.991 2.7495 210.332 2.64174 209.686 2.58787C209.04 2.534 208.529 2.48012 208.152 2.42625V0.808889C209.552 0.916627 210.965 1.01112 212.391 1.09192C213.818 1.17272 215.258 1.21333 216.711 1.21333C218.11 1.21333 219.469 1.17272 220.788 1.09192C222.107 1.01112 223.439 0.916627 224.785 0.808889V2.42625C224.354 2.48012 223.83 2.534 223.211 2.58787C222.592 2.64174 221.959 2.7495 221.313 2.91111C220.667 3.07314 220.061 3.27534 219.496 3.51775C218.931 3.76016 218.514 4.09705 218.245 4.52843C218.029 4.85207 217.909 5.2967 217.882 5.86276C217.855 6.42881 217.841 7.14322 217.841 8.00556V60H216.872ZM252.479 51.186C252.479 51.9949 252.479 52.6417 252.479 53.127C252.479 53.6118 252.587 54.0432 252.802 54.4207C253.017 54.9059 253.421 55.283 254.013 55.5528C254.605 55.8221 255.238 56.0376 255.911 56.1997C256.584 56.3613 257.243 56.4827 257.889 56.5635C258.535 56.6443 259.073 56.6849 259.504 56.6849L259.423 58.3826C257.808 58.221 256.18 58.0727 254.538 57.938C252.896 57.8033 251.255 57.7358 249.613 57.7358C248.025 57.7358 246.41 57.8033 244.768 57.938C243.127 58.0727 241.498 58.221 239.883 58.3826V56.6849C240.314 56.6849 240.839 56.6575 241.458 56.6037C242.077 56.5498 242.709 56.4421 243.355 56.2805C244.001 56.1189 244.607 55.903 245.172 55.6336C245.737 55.3638 246.154 54.9867 246.423 54.5015C246.692 54.0701 246.827 53.6118 246.827 53.127C246.827 52.6417 246.827 51.9679 246.827 51.1052V3.39634H241.498C240.583 3.39634 239.722 3.45021 238.914 3.55838C238.107 3.66612 237.299 3.93547 236.492 4.36685C235.362 5.01371 234.447 6.01112 233.747 7.3587C233.047 8.70629 232.321 10.593 231.567 13.0193H229.791L231.97 1.05134H267.739L270 13.0193H268.224C267.739 11.2403 267.268 9.78452 266.811 8.65241C266.353 7.5203 265.882 6.63107 265.398 5.98421C265.236 5.71444 264.94 5.37752 264.51 4.97308C264.079 4.56906 263.514 4.23218 262.814 3.9624C262.276 3.69306 261.751 3.531 261.24 3.47713C260.728 3.42326 259.934 3.39634 258.858 3.39634H252.479V51.186Z" fill="white"/>
</svg>
